<svg id="back" data-name="Layer 2" xmlns="http://www.w3.org/2000/svg" viewBox="0 0 54.65 127.88">
  <defs>
    <style>
      .cls-1 {
        fill: #232323;
        stroke-width: 0px;
      }
    </style>
  </defs>
  <g id="back-split">
    <g>
      <path id="head_tr" class="cls-1" d="M33.44,7h-6.01V0c4.9.07,5.85,4.19,5.85,4.19.25.84.23,1.98.16,2.81Z"/>
      <path id="head_mr" class="cls-1" d="M33.1,12.97h-5.67v-5.72h5.98c-.05.51-.11.85-.11.85,0,0,.41-.38,1.03.3.61.68.4,2.32-.22,3.53-.61,1.21-1,.87-1,.87,0,0,0,.06-.01.17Z"/>
      <path id="head_br" class="cls-1" d="M31.41,19.25h-3.98v-6.03h5.65c-.04.28-.12.69-.31,1.12-.36.83-1.36,1.49-1.36,1.49v3.42Z"/>
      <path id="r_chest_tl" class="cls-1" d="M32.67,26.57h-5.24v-7.07h4.28c.29.09.55.24,1.12.43h0l-.16,6.64Z"/>
      <path id="r_chest_tr" class="cls-1" d="M37.76,22.18h0s-.42,1.66-.44,4.39h-4.4l.16-6.63c.37.12.78.25,1.2.4,1.49.51,3.48,1.84,3.48,1.84Z"/>
      <polygon id="r_chest_ml" class="cls-1" points="32.49 33.96 27.43 33.96 27.43 26.82 32.67 26.82 32.49 33.96"/>
      <polygon id="r_chest_bl" class="cls-1" points="32.49 34.21 32.32 41.35 27.43 41.35 27.43 34.21 32.49 34.21"/>
      <path id="r_stomach_tr" class="cls-1" d="M36.78,48h-4.37l.15-6.4h5.51c-.39,1.15-1.25,3.5-1.25,3.5,0,0-.01,1.28-.04,2.9Z"/>
      <polygon id="r_stomach_tl" class="cls-1" points="32.16 48 27.43 48 27.43 41.6 32.31 41.6 32.16 48"/>
      <polygon id="r_stomach_ml" class="cls-1" points="32.15 48.25 31.97 55.66 27.43 55.66 27.43 48.25 32.15 48.25"/>
      <path id="r_stomach_mr" class="cls-1" d="M36.83,55.66h-4.61l.18-7.41h4.38c-.02,2.35-.05,5.31-.05,6.21,0,.36.04.76.1,1.2Z"/>
      <path id="r_stomach_br" class="cls-1" d="M38.19,63.32h-6.15l.18-7.41h4.65c.23,1.46.71,3.31,1.05,5.49.09.55.18,1.19.27,1.92Z"/>
      <polygon id="r_stomach_bl" class="cls-1" points="31.79 63.32 27.43 63.32 27.43 55.91 31.97 55.91 31.79 63.32"/>
      <polygon id="r_thigh_tl" class="cls-1" points="31.79 63.57 31.62 70.29 27.43 70.29 27.43 63.57 31.79 63.57"/>
      <path id="r_thigh_tr" class="cls-1" d="M38.68,70.29h-6.81l.17-6.72h6.18c.21,1.8.4,4.09.46,6.72Z"/>
      <path id="r_thigh_ml" class="cls-1" d="M27.7,78.31c-.06-3.46-.07-7.05-.07-7.77h3.99l-.19,7.77h-3.73Z"/>
      <path id="r_thigh_bl" class="cls-1" d="M31.43,78.56l-.23,9.26h-3.04c-.11-1.3-.22-2.61-.29-3.74-.08-1.26-.13-3.35-.16-5.52h3.72Z"/>
      <path id="r_knee_l" class="cls-1" d="M28.51,94.61c.13-1.2-.1-3.85-.32-6.54h3.01l-.23,9.37h-2.86c.16-1.15.33-2.11.4-2.83Z"/>
      <path id="r_lower_l" class="cls-1" d="M30.97,97.69l-.27,11.29h-2.43c-.17-1.72-.36-3.47-.47-5.21-.14-2.32.05-4.39.28-6.08h2.89Z"/>
      <path id="r_lower_r" class="cls-1" d="M35.13,108.98h-4.18l.27-11.29h4.63c.08.63.15,1.27.19,2.16,0,0-.24,4.66-.91,9.13h0Z"/>
      <path id="r_foot_l" class="cls-1" d="M28.14,121.29h2.26l-.15,6.56c-.34.04-.71.04-1.12-.03-1.62-.29-1.72-1.77-1.67-2.82.03-.73.43-2.43.68-3.83v.12Z"/>
      <path id="r_ankle_l" class="cls-1" d="M30.69,109.23l-.28,11.81h-2.25c.11-.58.18-1.1.19-1.47.03-1.26.19-4.66.19-4.66.11-1.45-.05-3.48-.25-5.68h2.4Z"/>
      <path id="r_ankle_r" class="cls-1" d="M30.66,121.04l.28-11.81h4.18c-.3,1.91-.67,3.75-1.14,5.11-1.02,2.95-1.15,5.31-.95,6.7h-2.37Z"/>
      <path id="r_foot_r" class="cls-1" d="M35.39,126.27c-.78.19-2.19.32-2.87.66-.47.22-1.12.7-2.02.87l.15-6.51h2.41c.12.6.29.98.48,1.1.6.4,2.65,1.49,3.01,2.16.37.67-.38,1.53-1.16,1.72Z"/>
      <path id="r_knee_r" class="cls-1" d="M35.83,97.44h-4.61l.23-9.37h5.27c-.55,2.22-1.04,3.92-1.22,4.76-.33,1.53.05,2.3.33,4.61Z"/>
      <path id="r_thigh_br" class="cls-1" d="M36.74,87.82h-5.29l.23-9.26h6.76c-.33,3.46-1.04,6.64-1.7,9.26Z"/>
      <path id="r_thigh_mr" class="cls-1" d="M38.56,77.1c-.03.44-.06.77-.1,1.21h-6.78l.19-7.77h6.81c.05,2,.02,4.22-.12,6.56Z"/>
      <path id="r_chest_br" class="cls-1" d="M39.2,37.46h0c-.29,1.1-.8,3.1-1.05,3.89h-5.58l.17-7.14h5.5c.25,1.03.56,2.12.96,3.25Z"/>
      <path id="r_chest_mr" class="cls-1" d="M38.18,33.96h-5.44l.18-7.14h4.4c0,1.92.2,4.35.86,7.14Z"/>
      <path id="r_shoulder" class="cls-1" d="M45.26,31.78c0,.06,0,.13,0,.19h-7.24c-1.02-5.84-.05-9.68-.03-9.73h0s2.52-.5,5.5,2.14c2.97,2.64,1.8,6.38,1.76,7.4Z"/>
      <path id="r_arm_l" class="cls-1" d="M43.87,43.31c-1.95.56-3.07,1.24-3.28,1.36-.19-1.09-.51-2.25-.67-2.95-.18-.82-.38-3.09-.48-4.27-.01-.03-.01-.06-.01-.1h0c-.03-.39-.12-.36-.12-.36,0,0,.04-.17,0,0-.57-1.7-.97-3.29-1.24-4.77h3.42l2.38,11.09Z"/>
      <path id="r_arm_r" class="cls-1" d="M44.11,43.24l-2.36-11.02h3.52c.04.93.62,1.56,1.08,3.18.35,1.26.33,4.76.32,7.32h0c-.96.14-1.82.32-2.56.52Z"/>
      <path id="r_elbow_l" class="cls-1" d="M45.28,49.91c-2.39.71-3.77,1.92-4.02,2.15-.57-1.8-.61-4.33-.51-5.57.04-.46.06-.95-.06-1.58h0s1.13-.74,3.23-1.35l1.36,6.35Z"/>
      <path id="r_elbow_r" class="cls-1" d="M45.52,49.84l-1.36-6.35c.73-.2,1.57-.38,2.52-.52,0,.93.01,1.7.03,2.15.08,1.71.94,2.24,1.53,4.02.02.07.05.16.08.25-1.04.05-1.98.22-2.8.45Z"/>
      <path id="r_forearm_r" class="cls-1" d="M47.01,56.82l-1.44-6.73c.81-.23,1.74-.4,2.78-.45h0c.33,1.44.58,4.47.73,6.96-.08-.01-.16-.01-.24-.01-.64,0-1.26.09-1.83.23Z"/>
      <path id="r_forearm_l" class="cls-1" d="M46.77,56.88c-1.71.45-2.96,1.32-3.19,1.49-.9-2.54-1.86-5.12-2.19-6.09h0s1.39-1.35,3.94-2.12l1.44,6.72Z"/>
      <path id="r_wrist_l" class="cls-1" d="M48.47,64.81c-1.73.77-2.88,1.84-3.14,2.1-.22-.94-.33-2.18-.32-3.42,0-.78-.56-2.73-1.32-4.89h0s1.31-.99,3.13-1.48l1.65,7.69Z"/>
      <path id="r_wrist_r" class="cls-1" d="M48.7,64.71l-1.63-7.65c.55-.13,1.15-.22,1.77-.22.08,0,.16,0,.24.01h0c.08,1.45.13,2.48.14,3.02.03,1.6.54,2.56,1.24,2.94.39.21,1.01.61,1.55,1.14-1.24.04-2.36.35-3.31.76Z"/>
      <path id="r_hand_l" class="cls-1" d="M50.49,74.25h0s-.25.19-.73.13c-.48-.07-.88-.94-.88-.94,0,0-.33.3-.84.01-.51-.28-1.21-1.21-1.29-1.98-.08-.76-.74-2.69-1.14-3.63-.09-.22-.1-.41-.16-.7h0s1.18-1.22,3.07-2.09l1.97,9.2Z"/>
      <path id="r_hand_r" class="cls-1" d="M54.36,69.34c-.62.46-1.84-.79-1.84-.79,0,0,.67,2.91.61,4.12-.06,1.21-.88,1.45-.88,1.45,0,0-.22.34-.65.47-.43.12-.87-.4-.87-.4h0l-1.98-9.24c.97-.41,2.11-.73,3.38-.76h.1c.41.41.65.76.78,1.28.33,1.25.95,1.94,1.19,2.43.24.49.77.97.15,1.44Z"/>
      <path id="head_tl" class="cls-1" d="M21.21,7h6.01V0c-4.9.07-5.85,4.19-5.85,4.19-.25.84-.23,1.98-.16,2.81Z"/>
      <path id="head_ml" class="cls-1" d="M21.55,12.97h5.67v-5.72h-5.98c.05.51.11.85.11.85,0,0-.41-.38-1.03.3-.61.68-.4,2.32.22,3.53.61,1.21,1,.87,1,.87,0,0,0,.06.01.17Z"/>
      <path id="head_bl" class="cls-1" d="M23.24,19.25h3.98v-6.03h-5.65c.04.28.12.69.31,1.12.36.83,1.36,1.49,1.36,1.49v3.42Z"/>
      <path id="l_chest_tr" class="cls-1" d="M21.98,26.57h5.24v-7.07h-4.28c-.29.09-.55.24-1.12.43h0l.16,6.64Z"/>
      <path id="l_chest_tl" class="cls-1" d="M16.89,22.18h0s.42,1.66.44,4.39h4.4l-.16-6.63c-.37.12-.78.25-1.2.4-1.49.51-3.48,1.84-3.48,1.84Z"/>
      <polygon id="l_chest_mr" class="cls-1" points="22.16 33.96 27.22 33.96 27.22 26.82 21.98 26.82 22.16 33.96"/>
      <polygon id="l_chest_br" class="cls-1" points="22.16 34.21 22.33 41.35 27.22 41.35 27.22 34.21 22.16 34.21"/>
      <path id="l_stomach_tl" class="cls-1" d="M17.87,48h4.37l-.15-6.4h-5.51c.39,1.15,1.25,3.5,1.25,3.5,0,0,.01,1.28.04,2.9Z"/>
      <polygon id="l_stomach_tr" class="cls-1" points="22.49 48 27.22 48 27.22 41.6 22.34 41.6 22.49 48"/>
      <polygon id="l_stomach_mr" class="cls-1" points="22.5 48.25 22.68 55.66 27.22 55.66 27.22 48.25 22.5 48.25"/>
      <path id="l_stomach_ml" class="cls-1" d="M17.82,55.66h4.61l-.18-7.41h-4.38c.02,2.35.05,5.31.05,6.21,0,.36-.04.76-.1,1.2Z"/>
      <path id="l_stomach_bl" class="cls-1" d="M16.46,63.32h6.15l-.18-7.41h-4.65c-.23,1.46-.71,3.31-1.05,5.49-.09.55-.18,1.19-.27,1.92Z"/>
      <polygon id="l_stomach_br" class="cls-1" points="22.86 63.32 27.22 63.32 27.22 55.91 22.68 55.91 22.86 63.32"/>
      <polygon id="l_thigh_tr" class="cls-1" points="22.86 63.57 23.03 70.29 27.22 70.29 27.22 63.57 22.86 63.57"/>
      <path id="l_thigh_tl" class="cls-1" d="M15.97,70.29h6.81l-.17-6.72h-6.18c-.21,1.8-.4,4.09-.46,6.72Z"/>
      <path id="l_thigh_mr" class="cls-1" d="M26.95,78.31c.06-3.46.07-7.05.07-7.77h-3.99l.19,7.77h3.73Z"/>
      <path id="l_thigh_br" class="cls-1" d="M23.22,78.56l.23,9.26h3.04c.11-1.3.22-2.61.29-3.74.08-1.26.13-3.35.16-5.52h-3.72Z"/>
      <path id="l_knee_r" class="cls-1" d="M26.14,94.61c-.13-1.2.1-3.85.32-6.54h-3.01l.23,9.37h2.86c-.16-1.15-.33-2.11-.4-2.83Z"/>
      <path id="l_lower_r" class="cls-1" d="M23.68,97.69l.27,11.29h2.43c.17-1.72.36-3.47.47-5.21.14-2.32-.05-4.39-.28-6.08h-2.89Z"/>
      <path id="l_lower_l" class="cls-1" d="M19.52,108.98h4.18l-.27-11.29h-4.63c-.08.63-.15,1.27-.19,2.16,0,0,.24,4.66.91,9.13h0Z"/>
      <path id="l_foot_r" class="cls-1" d="M26.51,121.29h-2.26l.15,6.56c.34.04.71.04,1.12-.03,1.62-.29,1.72-1.77,1.67-2.82-.03-.73-.43-2.43-.68-3.83v.12Z"/>
      <path id="l_ankle_r" class="cls-1" d="M23.96,109.23l.28,11.81h2.25c-.11-.58-.18-1.1-.19-1.47-.03-1.26-.19-4.66-.19-4.66-.11-1.45.05-3.48.25-5.68h-2.4Z"/>
      <path id="l_ankle_" class="cls-1" d="M23.99,121.04l-.28-11.81h-4.18c.3,1.91.67,3.75,1.14,5.11,1.02,2.95,1.15,5.31.95,6.7h2.37Z"/>
      <path id="l_foot_l" class="cls-1" d="M19.26,126.27c.78.19,2.19.32,2.87.66.47.22,1.12.7,2.02.87l-.15-6.51h-2.41c-.12.6-.29.98-.48,1.1-.6.4-2.65,1.49-3.01,2.16-.37.67.38,1.53,1.16,1.72Z"/>
      <path id="l_knee_l" class="cls-1" d="M18.82,97.44h4.61l-.23-9.37h-5.27c.55,2.22,1.04,3.92,1.22,4.76.33,1.53-.05,2.3-.33,4.61Z"/>
      <path id="l_thigh_bl" class="cls-1" d="M17.91,87.82h5.29l-.23-9.26h-6.76c.33,3.46,1.04,6.64,1.7,9.26Z"/>
      <path id="l_thigh_ml" class="cls-1" d="M16.09,77.1c.03.44.06.77.1,1.21h6.78l-.19-7.77h-6.81c-.05,2-.02,4.22.12,6.56Z"/>
      <path id="l_chest_bl" class="cls-1" d="M15.45,37.46h0c.29,1.1.8,3.1,1.05,3.89h5.58l-.17-7.14h-5.5c-.25,1.03-.56,2.12-.96,3.25Z"/>
      <path id="l_chest_ml" class="cls-1" d="M16.47,33.96h5.44l-.18-7.14h-4.4c0,1.92-.2,4.35-.86,7.14Z"/>
      <path id="l_shoulder" class="cls-1" d="M9.39,31.78c0,.06,0,.13,0,.19h7.24c1.02-5.84.05-9.68.03-9.73h0s-2.52-.5-5.5,2.14c-2.97,2.64-1.8,6.38-1.76,7.4Z"/>
      <path id="l_arm_r" class="cls-1" d="M10.78,43.31c1.95.56,3.07,1.24,3.28,1.36.19-1.09.51-2.25.67-2.95.18-.82.38-3.09.48-4.27.01-.03.01-.06.01-.1h0c.03-.39.12-.36.12-.36,0,0-.04-.17,0,0,.57-1.7.97-3.29,1.24-4.77h-3.42l-2.38,11.09Z"/>
      <path id="l_arm_l" class="cls-1" d="M10.54,43.24l2.36-11.02h-3.52c-.04.93-.62,1.56-1.08,3.18-.35,1.26-.33,4.76-.32,7.32h0c.96.14,1.82.32,2.56.52Z"/>
      <path id="l_elbow_r" class="cls-1" d="M9.37,49.91c2.39.71,3.77,1.92,4.02,2.15.57-1.8.61-4.33.51-5.57-.04-.46-.06-.95.06-1.58h0s-1.13-.74-3.23-1.35l-1.36,6.35Z"/>
      <path id="l_elbow_l" class="cls-1" d="M9.13,49.84l1.36-6.35c-.73-.2-1.57-.38-2.52-.52,0,.93-.01,1.7-.03,2.15-.08,1.71-.94,2.24-1.53,4.02-.02.07-.05.16-.08.25,1.04.05,1.98.22,2.8.45Z"/>
      <path id="l_forearm_l" class="cls-1" d="M7.64,56.82l1.44-6.73c-.81-.23-1.74-.4-2.78-.45h0c-.33,1.44-.58,4.47-.73,6.96.08-.01.16-.01.24-.01.64,0,1.26.09,1.83.23Z"/>
      <path id="l_forearm_r" class="cls-1" d="M7.88,56.88c1.71.45,2.96,1.32,3.19,1.49.9-2.54,1.86-5.12,2.19-6.09h0s-1.39-1.35-3.94-2.12l-1.44,6.72Z"/>
      <path id="l_wrist_r" class="cls-1" d="M6.18,64.81c1.73.77,2.88,1.84,3.14,2.1.22-.94.33-2.18.32-3.42,0-.78.56-2.73,1.32-4.89h0s-1.31-.99-3.13-1.48l-1.65,7.69Z"/>
      <path id="l_wrist_l" class="cls-1" d="M5.95,64.71l1.63-7.65c-.55-.13-1.15-.22-1.77-.22-.08,0-.16,0-.24.01h0c-.08,1.45-.13,2.48-.14,3.02-.03,1.6-.54,2.56-1.24,2.94-.39.21-1.01.61-1.55,1.14,1.24.04,2.36.35,3.31.76Z"/>
      <path id="l_hand_r" class="cls-1" d="M4.16,74.25h0s.25.19.73.13c.48-.07.88-.94.88-.94,0,0,.33.3.84.01.51-.28,1.21-1.21,1.29-1.98.08-.76.74-2.69,1.14-3.63.09-.22.1-.41.16-.7h0s-1.18-1.22-3.07-2.09l-1.97,9.2Z"/>
      <path id="l_wrist_l" class="cls-1" d="M.29,69.34c.62.46,1.84-.79,1.84-.79,0,0-.67,2.91-.61,4.12.06,1.21.88,1.45.88,1.45,0,0,.22.34.65.47.43.12.87-.4.87-.4h0l1.98-9.24c-.97-.41-2.11-.73-3.38-.76h-.1c-.41.41-.65.76-.78,1.28-.33,1.25-.95,1.94-1.19,2.43-.24.49-.77.97-.15,1.44Z"/>
    </g>
  </g>
</svg>