<svg id="right" data-name="Layer 2" xmlns="http://www.w3.org/2000/svg" viewBox="0 0 19.9 127.43">
  <defs>
    <style>
      .cls-1 {
        fill: #232323;
        stroke-width: 0px;
      }
    </style>
  </defs>
  <g id="right-split">
    <g>
      <path id="head" class="cls-1" d="M17.37,9.83c-.32-.77.17-1.34.17-1.34,0,0,.75-1.41.02-3.83-.74-2.43-3.29-4.66-8.11-4.66S2.11,5.04,2.62,8.36c.51,3.32,2.14,3.45,2.59,6.29.44,2.84-.74,4.07-2.48,7.31-.43.79-.82,1.62-1.15,2.45h11.28c-.71-1.15-1.28-2.03-1.41-2.28-.34-.64-.15-1.79.19-2.39.34-.59.9-2.13.9-2.13,0,0-.17-.11,2.35.55,2.52.65,2.13-2.52,2.13-2.52,0,0,.23-.21.38-.4.14-.19-.13-.64-.13-.64,0,0,.22-.18.32-.4.1-.22-.19-.88-.19-.88,0,0,.64-.11,1.23-.64.59-.52-.94-2.09-1.26-2.85Z"/>
      <path id="chest_tl" class="cls-1" d="M.08,30.47h8.08v-5.81H1.48c-.74,1.92-1.23,3.91-1.4,5.81Z"/>
      <path id="chest_tr" class="cls-1" d="M14.03,30.47h2.19c-.05-.12-.1-.25-.16-.38-.46-1.05-1.24-2.44-2.03-3.77v4.15Z"/>
      <path id="chest_tc" class="cls-1" d="M8.41,30.47h5.37v-4.56c-.26-.43-.52-.86-.76-1.25h-4.61v5.81Z"/>
      <rect id="chest_bc" class="cls-1" x="8.41" y="30.72" width="5.37" height="8.94"/>
      <path id="chest_br" class="cls-1" d="M14.03,30.72v8.94h3.25c-.21-.96-.46-1.56-.46-1.56,0,0,.58-.79.67-1.94.09-1.06-.22-3.08-1.17-5.44h-2.29Z"/>
      <path id="stomach_tr" class="cls-1" d="M14.03,39.91v8.44h4.11c-.2-2.94-.54-5.93-.63-7.12-.04-.48-.11-.93-.18-1.32h-3.3Z"/>
      <rect id="stomach_tc" class="cls-1" x="8.41" y="39.91" width="5.37" height="8.44"/>
      <path id="stomach_bl" class="cls-1" d="M5.03,55.88h3.13v-7.29h-3.97c.93,3.91.87,6.67.84,7.29Z"/>
      <rect id="stomach_bc" class="cls-1" x="8.41" y="48.59" width="5.37" height="7.29"/>
      <path id="stomach_br" class="cls-1" d="M18.26,52.88c.04-1.21-.01-2.74-.11-4.29h-4.12v7.29h4.09c.05-.93.1-1.93.14-3Z"/>
      <path id="bottom_tr" class="cls-1" d="M14.03,56.13v6.39h3.92c-.04-.39-.07-.77-.07-1.12-.03-1.44.1-3.19.22-5.27h-4.07Z"/>
      <rect id="bottom_tc" class="cls-1" x="8.41" y="56.13" width="5.37" height="6.39"/>
      <path id="bottom_tl" class="cls-1" d="M2.35,62.52h5.81v-6.39h-3.27c-.48.45-2.11,2.29-2.54,6.39Z"/>
      <rect id="bottom_bc" class="cls-1" x="8.41" y="62.77" width="5.37" height="6.38"/>
      <path id="bottom_br" class="cls-1" d="M14.03,62.77v6.38h3.28c.22-.25.67-.82.96-1.59.32-.84-.1-2.9-.3-4.79h-3.94Z"/>
      <path id="thigh_r" class="cls-1" d="M14.03,69.4v17.63h1.93c.31-1.42.69-3.34,1.02-5.71.59-4.3.25-10.96.2-11.92h-3.15Z"/>
      <path id="knee_r" class="cls-1" d="M15.42,89.68c.03-.36.22-1.16.49-2.4h-1.88v8.94c.3-.58.64-1.08.94-1.95.58-1.62.39-3.83.45-4.59Z"/>
      <rect id="thigh_c" class="cls-1" x="8.41" y="69.4" width="5.37" height="17.63"/>
      <path id="knee_c" class="cls-1" d="M13.34,98.23c.12-.62.27-1.09.44-1.48v-9.47h-5.37v15h4.34c.21-1.66.43-3.19.59-4.05Z"/>
      <path id="lower_r" class="cls-1" d="M12.05,108.21c.14-1.26.4-3.55.67-5.68h-4.31v11.37h2.81c.2-2,.63-3.95.83-5.69Z"/>
      <path id="ankle_r" class="cls-1" d="M11.11,115.82c0-.56.03-1.12.08-1.67h-2.78v5.94h2.66c-.11-.88.04-2.33.04-4.27Z"/>
      <path id="ankle_l" class="cls-1" d="M5.39,120.09h2.77v-5.94h-2.69c.14,1.97.13,3.81.05,5.04-.02.32-.07.62-.13.9Z"/>
      <path id="foot_r" class="cls-1" d="M14.92,123.15c-.17-.16-.49-.37-.89-.6v4.81c.5.02,1.21.04,2.31.06,2.79.07,3.77-.36,3.52-1.46-.26-1.11-1.9-.96-2.39-1.09-.49-.13-1.98-1.17-2.55-1.72Z"/>
      <path id="foot_c" class="cls-1" d="M8.41,120.34v6.95c.8-.1,1.55-.31,2.15-.4,1-.15,1.49,0,2.08.24.32.12.56.18,1.14.22v-4.95c-.96-.56-2.17-1.2-2.48-1.59-.09-.11-.15-.27-.19-.47h-2.7Z"/>
      <path id="foot_l" class="cls-1" d="M4.32,124.32c-.04,2.02.98,2.74,2.39,2.98.48.08.97.07,1.45.02v-6.98h-2.83c-.33,1.36-.97,2.38-1.01,3.98Z"/>
      <path id="lower_l" class="cls-1" d="M5.45,113.9h2.71v-11.37h-4.01c-.08,2.34.39,4.98.88,7.77.2,1.17.34,2.4.42,3.6Z"/>
      <path id="knee_l" class="cls-1" d="M4.16,102.28h4v-15h-1.66s.01.04.02.06c1.34,3.93.89,4.38-.18,6.59-1.06,2.22-1.85,5.11-2.12,7.66-.02.23-.04.46-.06.69Z"/>
      <path id="thigh_l" class="cls-1" d="M6.42,87.03h1.74v-17.63H3.49c.66,1.04,1.33,1.42,1.33,1.42,0,0-.13,5.65.01,8.56.15,2.84.33,3.96,1.59,7.65Z"/>
      <path id="bottom_bl" class="cls-1" d="M3.35,69.15h4.81v-6.38H2.33c-.03.26-.05.54-.06.83-.12,2.68.45,4.44,1.08,5.55Z"/>
      <path id="stomach_tl" class="cls-1" d="M4.14,48.35h4.02v-8.44H1.37c.4,1.26.91,2.73,1.57,4.51.52,1.4.91,2.72,1.2,3.93Z"/>
      <path id="chest_bl" class="cls-1" d="M0,32.21c.04,2.34.27,4.17,1.29,7.45h6.87v-8.94H.06c-.05.51-.07,1-.06,1.49Z"/>
    </g>
  </g>
</svg>